<svg xmlns="http://www.w3.org/2000/svg" width="57" height="61" viewBox="0 0 57 61" fill="none"><g clip-path="url(#clip0_139_57)" filter="url(#filter0_d_139_57)"><path d="M44.6029 56.2154H12.3247C6.46632 56.2154 1.71143 51.4406 1.71143 45.5576V19.9237C1.71143 14.0407 6.46632 9.26593 12.3247 9.26593H44.6029C50.4613 9.26593 55.2162 14.0407 55.2162 19.9237V45.5576C55.2162 51.4406 50.4613 56.2154 44.6029 56.2154Z" fill="#F9B842"></path><path d="M44.6029 56.2154H12.3247C6.46632 56.2154 1.71143 51.4406 1.71143 45.5576V19.9237C1.71143 14.0407 6.46632 9.26593 12.3247 9.26593H44.6029C50.4613 9.26593 55.2162 14.0407 55.2162 19.9237V45.5576C55.2162 51.4406 50.4613 56.2154 44.6029 56.2154Z" fill="#FFD27B"></path><path d="M45.9824 4.94742C51.0781 4.94742 55.2163 9.49407 55.2163 15.1163V46.0465C55.2163 51.6524 50.0882 56.2154 44.9763 56.2154H33.584V4.94742H45.9824Z" fill="url(#paint0_linear_139_57)"></path><path d="M10.9453 4.94742C5.84963 4.94742 1.7114 9.49407 1.7114 15.1163V46.0465C1.7114 51.6524 6.83955 56.2154 11.9515 56.2154H23.3438V4.94742H10.9453Z" fill="url(#paint1_linear_139_57)"></path><path d="M44.6029 46.8613H12.3247C6.46632 46.8613 1.71143 42.0865 1.71143 36.2036V10.5859C1.71143 4.70299 6.46632 -0.0718079 12.3247 -0.0718079H44.6029C50.4613 -0.0718079 55.2162 4.70299 55.2162 10.5859V36.2199C55.2162 42.0865 50.4613 46.8613 44.6029 46.8613Z" fill="#FFDE32"></path><path d="M35.0374 24.5243C34.9618 24.6018 34.6765 24.933 34.4107 25.2055C32.8523 26.9191 28.7872 29.7239 26.6595 30.58C26.3363 30.7176 25.5194 31.0088 25.0829 31.0275C24.6647 31.0275 24.266 30.9313 23.8855 30.7363C23.4112 30.4638 23.0308 30.0351 22.8223 29.5289C22.6881 29.1776 22.4796 28.1265 22.4796 28.1078C22.2712 26.9578 22.1565 25.0893 22.1565 23.0244C22.1565 21.057 22.2712 19.2646 22.4418 18.0973C22.4614 18.0786 22.6699 16.7724 22.8979 16.3249C23.3161 15.5075 24.1331 15 25.0073 15L25.0829 15C25.6523 15.02 26.8497 15.5276 26.8497 15.5463C28.8627 16.4037 32.8341 19.071 34.4302 20.8433C34.4302 20.8433 34.8797 21.2988 35.0752 21.5833C35.38 21.992 35.5312 22.4982 35.5312 23.0044C35.5312 23.5694 35.3605 24.0956 35.0374 24.5243Z" fill="white"></path></g><defs><filter id="filter0_d_139_57" x="0" y="0" width="57" height="61" filterUnits="userSpaceOnUse" color-interpolation-filters="sRGB"><feGaussianBlur stdDeviation="1"></feGaussianBlur></filter><linearGradient id="paint0_linear_139_57" x1="62.2829" y1="30.5824" x2="33.5874" y2="30.5824" gradientUnits="userSpaceOnUse"><stop stop-color="#FFBE5C"></stop><stop offset="0.84375" stop-color="#FFA90B" stop-opacity="0"></stop></linearGradient><linearGradient id="paint1_linear_139_57" x1="-5.35521" y1="30.5824" x2="23.3403" y2="30.5824" gradientUnits="userSpaceOnUse"><stop stop-color="#FFBE5C"></stop><stop offset="0.84375" stop-color="#FFA90B" stop-opacity="0"></stop></linearGradient><clipPath id="clip0_139_57"><rect width="53" height="56" fill="white" transform="translate(2)"></rect></clipPath></defs></svg>